{
  "accessors": [
    {
      "bufferView": 2,
      "componentType": 5126,
      "count": 34607,
      "max": [
        0.12367495894432068,
        0.12367495894432068,
        0.015296855941414833
      ],
      "min": [
        -0.12367495894432068,
        -0.12367495894432068,
        -0.006176388822495937
      ],
      "type": "VEC3"
    },
    {
      "bufferView": 2,
      "byteOffset": 415284,
      "componentType": 5126,
      "count": 34607,
      "max": [
        0.9996345043182373,
        0.9996348023414612,
        1.0
      ],
      "min": [
        -0.9996345043182373,
        -0.9996344447135925,
        -1.0
      ],
      "type": "VEC3"
    },
    {
      "bufferView": 3,
      "componentType": 5126,
      "count": 34607,
      "max": [
        0.9748883247375488,
        0.9668546319007874,
        0.6057327389717102,
        1.0
      ],
      "min": [
        -0.9596827030181885,
        -0.9668537974357605,
        -0.9996345043182373,
        -1.0
      ],
      "type": "VEC4"
    },
    {
      "bufferView": 1,
      "componentType": 5126,
      "count": 34607,
      "max": [
        0.84369957447052,
        0.9855630397796631
      ],
      "min": [
        0.05164974927902222,
        0.02344454452395439
      ],
      "type": "VEC2"
    },
    {
      "bufferView": 1,
      "byteOffset": 276856,
      "componentType": 5126,
      "count": 34607,
      "max": [
        0.84369957447052,
        0.9855630397796631
      ],
      "min": [
        0.05164974927902222,
        0.02344454452395439
      ],
      "type": "VEC2"
    },
    {
      "bufferView": 1,
      "byteOffset": 553712,
      "componentType": 5126,
      "count": 34607,
      "max": [
        0.84369957447052,
        0.9855630397796631
      ],
      "min": [
        0.05164974927902222,
        0.02344454452395439
      ],
      "type": "VEC2"
    },
    {
      "bufferView": 0,
      "componentType": 5125,
      "count": 196608,
      "type": "SCALAR"
    },
    {
      "bufferView": 2,
      "byteOffset": 830568,
      "componentType": 5126,
      "count": 29498,
      "max": [
        1.538638710975647,
        1.0005803108215332,
        0.1295076459646225
      ],
      "min": [
        -1.0005803108215332,
        -1.0005803108215332,
        -1.0006612539291382
      ],
      "type": "VEC3"
    },
    {
      "bufferView": 2,
      "byteOffset": 1184544,
      "componentType": 5126,
      "count": 29498,
      "max": [
        0.9999997615814209,
        0.9999999403953552,
        1.0
      ],
      "min": [
        -0.9999551773071289,
        -1.0,
        -1.0
      ],
      "type": "VEC3"
    },
    {
      "bufferView": 3,
      "byteOffset": 553712,
      "componentType": 5126,
      "count": 29498,
      "max": [
        0.9997376203536987,
        0.9999984502792358,
        0.9995571374893188,
        1.0
      ],
      "min": [
        -0.9999356865882874,
        -0.9999999403953552,
        -0.999997615814209,
        -1.0
      ],
      "type": "VEC4"
    },
    {
      "bufferView": 1,
      "byteOffset": 830568,
      "componentType": 5126,
      "count": 29498,
      "max": [
        0.9913772344589233,
        0.990145742893219
      ],
      "min": [
        0.005602785386145115,
        0.0008344711968675256
      ],
      "type": "VEC2"
    },
    {
      "bufferView": 1,
      "byteOffset": 1066552,
      "componentType": 5126,
      "count": 29498,
      "max": [
        0.9913772344589233,
        0.990145742893219
      ],
      "min": [
        0.005602785386145115,
        0.0008344711968675256
      ],
      "type": "VEC2"
    },
    {
      "bufferView": 1,
      "byteOffset": 1302536,
      "componentType": 5126,
      "count": 29498,
      "max": [
        0.9913772344589233,
        0.990145742893219
      ],
      "min": [
        0.005602785386145115,
        0.0008344711968675256
      ],
      "type": "VEC2"
    },
    {
      "bufferView": 0,
      "byteOffset": 786432,
      "componentType": 5125,
      "count": 158976,
      "type": "SCALAR"
    },
    {
      "bufferView": 2,
      "byteOffset": 1538520,
      "componentType": 5126,
      "count": 6571,
      "max": [
        0.08042353391647339,
        0.08039851486682892,
        0.005725401919335127
      ],
      "min": [
        -0.08045930415391922,
        -0.0803990289568901,
        0.0015349066816270351
      ],
      "type": "VEC3"
    },
    {
      "bufferView": 2,
      "byteOffset": 1617372,
      "componentType": 5126,
      "count": 6571,
      "max": [
        0.10806317627429962,
        0.10625313222408295,
        0.9999998807907104
      ],
      "min": [
        -0.07917038351297379,
        -0.10215485841035843,
        0.9928127527236938
      ],
      "type": "VEC3"
    },
    {
      "bufferView": 3,
      "byteOffset": 1025680,
      "componentType": 5126,
      "count": 6571,
      "max": [
        1.0,
        0.2087462991476059,
        0.07750654220581055,
        1.0
      ],
      "min": [
        0.974012553691864,
        -0.21676306426525116,
        -0.1080554649233818,
        1.0
      ],
      "type": "VEC4"
    },
    {
      "bufferView": 1,
      "byteOffset": 1538520,
      "componentType": 5126,
      "count": 6571,
      "max": [
        1.0,
        1.0
      ],
      "min": [
        0.0,
        0.0
      ],
      "type": "VEC2"
    },
    {
      "bufferView": 1,
      "byteOffset": 1591088,
      "componentType": 5126,
      "count": 6571,
      "max": [
        0.7875591516494751,
        0.9230397939682007
      ],
      "min": [
        0.23549622297286987,
        0.09428343176841736
      ],
      "type": "VEC2"
    },
    {
      "bufferView": 1,
      "byteOffset": 1643656,
      "componentType": 5126,
      "count": 6571,
      "max": [
        0.7875591516494751,
        0.9230397939682007
      ],
      "min": [
        0.23549622297286987,
        0.09428343176841736
      ],
      "type": "VEC2"
    },
    {
      "bufferView": 1,
      "byteOffset": 1696224,
      "componentType": 5126,
      "count": 6571,
      "max": [
        0.7875591516494751,
        0.9230397939682007
      ],
      "min": [
        0.23549622297286987,
        0.09428343176841736
      ],
      "type": "VEC2"
    },
    {
      "bufferView": 0,
      "byteOffset": 1422336,
      "componentType": 5125,
      "count": 36864,
      "type": "SCALAR"
    }
  ],
  "asset": {
    "extras": {
      "author": "Kero.Los (https://sketchfab.com/Kero.Los)",
      "license": "CC-BY-4.0 (http://creativecommons.org/licenses/by/4.0/)",
      "source": "https://sketchfab.com/3d-models/coffee-mug-8ef6106a071845368d94bb7bd827bfdb",
      "title": "Coffee Mug"
    },
    "generator": "Sketchfab-16.45.0",
    "version": "2.0"
  },
  "bufferViews": [
    {
      "buffer": 0,
      "byteLength": 1569792,
      "name": "floatBufferViews",
      "target": 34963
    },
    {
      "buffer": 0,
      "byteLength": 1748792,
      "byteOffset": 1569792,
      "byteStride": 8,
      "name": "floatBufferViews",
      "target": 34962
    },
    {
      "buffer": 0,
      "byteLength": 1696224,
      "byteOffset": 3318584,
      "byteStride": 12,
      "name": "floatBufferViews",
      "target": 34962
    },
    {
      "buffer": 0,
      "byteLength": 1130816,
      "byteOffset": 5014808,
      "byteStride": 16,
      "name": "floatBufferViews",
      "target": 34962
    }
  ],
  "buffers": [
    {
      "byteLength": 6145624,
      "uri": "scene.bin"
    }
  ],
  "images": [
    {
      "uri": "textures/Coffee_Plate_MAT_baseColor.png"
    },
    {
      "uri": "textures/Coffee_Plate_MAT_metallicRoughness.png"
    },
    {
      "uri": "textures/Coffee_Plate_MAT_normal.png"
    },
    {
      "uri": "textures/Coffee_Cup_MAT_baseColor.png"
    },
    {
      "uri": "textures/Coffee_Cup_MAT_metallicRoughness.png"
    },
    {
      "uri": "textures/Coffee_Cup_MAT_normal.png"
    },
    {
      "uri": "textures/Coffee_Rosetta_Latte_MAT_baseColor.png"
    },
    {
      "uri": "textures/Coffee_Rosetta_Latte_MAT_metallicRoughness.png"
    },
    {
      "uri": "textures/Coffee_Rosetta_Latte_MAT_normal.png"
    }
  ],
  "materials": [
    {
      "doubleSided": true,
      "name": "Coffee_Plate_MAT",
      "normalTexture": {
        "index": 2
      },
      "pbrMetallicRoughness": {
        "baseColorTexture": {
          "index": 0
        },
        "metallicFactor": 0.0,
        "metallicRoughnessTexture": {
          "index": 1
        }
      }
    },
    {
      "doubleSided": true,
      "name": "Coffee_Cup_MAT",
      "normalTexture": {
        "index": 5
      },
      "pbrMetallicRoughness": {
        "baseColorTexture": {
          "index": 3
        },
        "metallicFactor": 0.0,
        "metallicRoughnessTexture": {
          "index": 4
        }
      }
    },
    {
      "doubleSided": true,
      "name": "Coffee_Rosetta_Latte_MAT",
      "normalTexture": {
        "index": 8
      },
      "pbrMetallicRoughness": {
        "baseColorTexture": {
          "index": 6
        },
        "metallicFactor": 0.0,
        "metallicRoughnessTexture": {
          "index": 7
        }
      }
    }
  ],
  "meshes": [
    {
      "name": "Cup_Plate_Coffee_Plate_MAT_0",
      "primitives": [
        {
          "attributes": {
            "NORMAL": 1,
            "POSITION": 0,
            "TANGENT": 2,
            "TEXCOORD_0": 3,
            "TEXCOORD_1": 4,
            "TEXCOORD_2": 5
          },
          "indices": 6,
          "material": 0,
          "mode": 4
        }
      ]
    },
    {
      "name": "Coffee_Cup_Coffee_Cup_MAT_0",
      "primitives": [
        {
          "attributes": {
            "NORMAL": 8,
            "POSITION": 7,
            "TANGENT": 9,
            "TEXCOORD_0": 10,
            "TEXCOORD_1": 11,
            "TEXCOORD_2": 12
          },
          "indices": 13,
          "material": 1,
          "mode": 4
        }
      ]
    },
    {
      "name": "Coffee_Coffee_Rosetta_Latte_MAT_0",
      "primitives": [
        {
          "attributes": {
            "NORMAL": 15,
            "POSITION": 14,
            "TANGENT": 16,
            "TEXCOORD_0": 17,
            "TEXCOORD_1": 18,
            "TEXCOORD_2": 19,
            "TEXCOORD_3": 20
          },
          "indices": 21,
          "material": 2,
          "mode": 4
        }
      ]
    }
  ],
  "nodes": [
    {
      "children": [
        1
      ],
      "matrix": [
        0.9090909361839294,
        0.0,
        0.0,
        0.0,
        0.0,
        2.0185873776588746e-16,
        -0.9090909361839294,
        0.0,
        0.0,
        0.9090909361839294,
        2.0185873776588746e-16,
        0.0,
        0.0,
        0.0,
        0.0,
        1.0
      ],
      "name": "Sketchfab_model"
    },
    {
      "children": [
        2
      ],
      "matrix": [
        0.009999999776482582,
        0.0,
        0.0,
        0.0,
        0.0,
        0.0,
        0.009999999776482582,
        0.0,
        0.0,
        -0.009999999776482582,
        0.0,
        0.0,
        0.0,
        0.0,
        0.0,
        1.0
      ],
      "name": "4926a9afbdda4d3d8014e6eb3ee340d0.fbx"
    },
    {
      "children": [
        3
      ],
      "name": "RootNode"
    },
    {
      "children": [
        4,
        5
      ],
      "matrix": [
        100.0,
        0.0,
        0.0,
        0.0,
        0.0,
        -1.629206793918314e-05,
        -99.99999999999868,
        0.0,
        0.0,
        99.99999999999868,
        -1.629206793918314e-05,
        0.0,
        0.0,
        0.0,
        0.0,
        1.0
      ],
      "name": "Cup_Plate"
    },
    {
      "mesh": 0,
      "name": "Cup_Plate_Coffee_Plate_MAT_0"
    },
    {
      "children": [
        6,
        7
      ],
      "matrix": [
        0.08450230211019516,
        0.0,
        0.0,
        0.0,
        0.0,
        0.08450230211019516,
        0.0,
        0.0,
        0.0,
        0.0,
        0.08450230211019516,
        0.0,
        0.0,
        1.6543612251060553e-24,
        0.08450230211019516,
        1.0
      ],
      "name": "Coffee_Cup"
    },
    {
      "mesh": 1,
      "name": "Coffee_Cup_Coffee_Cup_MAT_0"
    },
    {
      "children": [
        8
      ],
      "matrix": [
        11.833996772766113,
        0.0,
        0.0,
        0.0,
        0.0,
        11.833996772766113,
        4.235164736271503e-22,
        0.0,
        0.0,
        -4.235164736271503e-22,
        11.833996772766113,
        0.0,
        0.0,
        0.0,
        0.0,
        1.0
      ],
      "name": "Coffee"
    },
    {
      "mesh": 2,
      "name": "Coffee_Coffee_Rosetta_Latte_MAT_0"
    }
  ],
  "samplers": [
    {
      "magFilter": 9729,
      "minFilter": 9987,
      "wrapS": 10497,
      "wrapT": 10497
    }
  ],
  "scene": 0,
  "scenes": [
    {
      "name": "Sketchfab_Scene",
      "nodes": [
        0
      ]
    }
  ],
  "textures": [
    {
      "sampler": 0,
      "source": 0
    },
    {
      "sampler": 0,
      "source": 1
    },
    {
      "sampler": 0,
      "source": 2
    },
    {
      "sampler": 0,
      "source": 3
    },
    {
      "sampler": 0,
      "source": 4
    },
    {
      "sampler": 0,
      "source": 5
    },
    {
      "sampler": 0,
      "source": 6
    },
    {
      "sampler": 0,
      "source": 7
    },
    {
      "sampler": 0,
      "source": 8
    }
  ]
}
